        <svg width="100" height="100" viewBox="0 0 100 100" xmlns="http://www.w3.org/2000/svg">
            <!-- 鮮やかな緑の背景 -->
            <rect width="100" height="100" rx="20" ry="20" fill="#4CAF50"/>
            
            <!-- ゴルフボール -->
            <circle cx="50" cy="50" r="30" fill="#f0f0f0"/>
            <path d="M40 40a5 5 0 1 0 10 0a5 5 0 1 0-10 0zm20 0a5 5 0 1 0 10 0a5 5 0 1 0-10 0zm-10 20a5 5 0 1 0 10 0a5 5 0 1 0-10 0z" fill="#ddd"/>
            
            <!-- ポップな旗 -->
            <path d="M75 25 L75 75" stroke="#fff" stroke-width="4"/>
            <path d="M75 25 L55 35 L75 45 L55 55 Z" fill="#FFC107"/>
            <circle cx="75" cy="75" r="5" fill="#f0f0f0"/>
            
            <!-- 影 -->
            <path d="M55 80 Q65 90, 75 80 L75 80 Z" fill="#2E7D32"/>
        </svg>